# xmcd
#
# Track frame offsets:
#	150
#	11120
#	25757
#	34690
#	52832
#	65002
#	77927
#	89555
#	99737
#	113802
#
# Disc length: 1727 seconds
#
# Revision: 0
# Processed by: cddbd v1.5PL3 Copyright (c) Steve Scherf et al.
# Submitted via: dBpowerAMP V4.0
#
DISCID=7d06bd0a
DTITLE=LOS AMABLES DEL NORTE - UN CORAZON DE ORO
DYEAR=1900
DGENRE=
TTITLE0=DESTA SIERRA A LA OTRA SIERRA
TTITLE1=UN CORAZON DE ORO
TTITLE2=AY MORENITA
TTITLE3=EL PODEROSO
TTITLE4=PORQUE TE FUISTE
TTITLE5=MI MAS GRANDE ANELO
TTITLE6=LA LAMPARA
TTITLE7=SI ES CIERTO QUE TE VAS
TTITLE8=EL MAL HERIDO
TTITLE9=SILVESTRE MUNGIA
EXTD=
EXTT0=
EXTT1=
EXTT2=
EXTT3=
EXTT4=
EXTT5=
EXTT6=
EXTT7=
EXTT8=
EXTT9=
PLAYORDER=
